<?xml version="1.0" encoding="utf-8"?>
<!-- Generator: Adobe Illustrator 22.1.0, SVG Export Plug-In . SVG Version: 6.00 Build 0)  -->
<svg version="1.1" id="Capa_1" xmlns="http://www.w3.org/2000/svg" xmlns:xlink="http://www.w3.org/1999/xlink" x="0px" y="0px"
	 viewBox="0 0 973.5 182.9" style="enable-background:new 0 0 973.5 182.9;" xml:space="preserve">
<style type="text/css">
	.st0{fill:#FFFFFF;}
</style>
<g>
	<path class="st0" d="M27.2,162.2v-137h56v14h-36v108h36v15H27.2z"/>
	<path class="st0" d="M100.2,53.2h20v9.1c3.4-3.7,7.1-6.5,11.3-8.4c4.1-1.8,8.6-2.8,13.5-2.8c4.9,0,9.4,1.2,13.3,3.6
		c4,2.4,7.2,6,9.6,10.6c3.1-4.6,7-8.2,11.6-10.6c4.6-2.4,9.6-3.6,15-3.6c5.6,0,10.5,1.3,14.8,3.9c4.3,2.6,7.3,6,9.2,10.2
		c1.9,4.2,2.8,11.1,2.8,20.5v46.3h-20V92.1c0-9-1.1-15-3.3-18.2c-2.2-3.2-5.5-4.8-9.9-4.8c-3.3,0-6.3,1-9,2.9
		c-2.6,1.9-4.6,4.6-5.9,8c-1.3,3.4-1.9,8.9-1.9,16.5v35.7h-20V93.9c0-7.1-0.5-12.2-1.6-15.4c-1-3.2-2.6-5.5-4.7-7.1
		c-2.1-1.6-4.6-2.3-7.6-2.3c-3.3,0-6.3,1-9,2.9c-2.7,2-4.7,4.7-6.1,8.3c-1.3,3.5-2,9.1-2,16.7v35.2h-20V53.2z"/>
	<path class="st0" d="M320,98.2h-63.8c0.9,5.6,3.4,10.1,7.4,13.4c4,3.3,9.1,5,15.3,5c7.4,0,13.8-2.6,19.1-7.8l16.7,7.9
		c-4.2,5.9-9.2,10.3-15,13.1c-5.8,2.8-12.7,4.3-20.7,4.3c-12.4,0-22.5-3.9-30.3-11.8c-7.8-7.8-11.7-17.6-11.7-29.4
		c0-12.1,3.9-22.1,11.7-30.1c7.8-8,17.5-12,29.3-12c12.5,0,22.6,4,30.4,12c7.8,8,11.7,18.5,11.7,31.6L320,98.2z M300.2,83.2
		c-1.3-4.4-3.9-8-7.8-10.8c-3.9-2.8-8.3-4.1-13.4-4.1c-5.5,0-10.4,1.6-14.6,4.7c-2.6,1.9-5.1,5.4-7.3,10.3H300.2z"/>
	<path class="st0" d="M394.2,22.2h20v110h-20v-8.4c-3.9,3.7-7.8,6.4-11.7,8c-3.9,1.6-8.2,2.4-12.8,2.4c-10.3,0-19.2-4-26.7-11.9
		c-7.5-8-11.3-17.8-11.3-29.7c0-12.3,3.6-22.3,10.9-30.1c7.3-7.8,16.1-11.7,26.5-11.7c4.8,0,9.3,0.9,13.5,2.7
		c4.2,1.8,8.1,4.5,11.6,8.1V22.2z M373.6,69.6c-6.1,0-11.2,2.2-15.3,6.5c-4.1,4.3-6.1,9.9-6.1,16.7c0,6.8,2.1,12.5,6.2,16.9
		c4.1,4.4,9.2,6.6,15.3,6.6c6.2,0,11.4-2.2,15.5-6.5c4.1-4.3,6.2-10,6.2-17.1c0-6.9-2.1-12.5-6.2-16.7
		C385.1,71.7,379.9,69.6,373.6,69.6z"/>
	<path class="st0" d="M442.2,20.7c3.5,0,6.5,1.3,9,3.8c2.5,2.5,3.7,5.6,3.7,9.2c0,3.5-1.2,6.6-3.7,9.1c-2.5,2.5-5.4,3.7-8.8,3.7
		c-3.5,0-6.5-1.3-9-3.8c-2.5-2.5-3.7-5.6-3.7-9.3c0-3.5,1.2-6.5,3.7-8.9S438.7,20.7,442.2,20.7z M432.2,53.2h20v79h-20V53.2z"/>
	<path class="st0" d="M528.2,53.2h20v79h-20v-8.4c-3.9,3.7-7.8,6.3-11.7,8c-3.9,1.6-8.2,2.4-12.8,2.4c-10.3,0-19.2-4-26.7-11.9
		c-7.5-7.9-11.3-17.8-11.3-29.5c0-12.2,3.6-22.2,10.9-30c7.3-7.8,16.1-11.7,26.5-11.7c4.8,0,9.3,0.9,13.5,2.7
		c4.2,1.8,8.1,4.5,11.6,8.1V53.2z M507.7,69.6c-6.1,0-11.2,2.2-15.3,6.5c-4.1,4.3-6.1,9.9-6.1,16.7c0,6.8,2.1,12.5,6.2,16.9
		c4.1,4.4,9.2,6.6,15.3,6.6c6.2,0,11.4-2.2,15.5-6.5c4.1-4.3,6.2-10,6.2-17.1c0-6.9-2.1-12.5-6.2-16.7
		C519.2,71.7,514,69.6,507.7,69.6z"/>
	<path class="st0" d="M588.2,22.2v39.4c3.6-3.6,7.6-6.3,11.8-8.1c4.2-1.8,8.8-2.7,13.6-2.7c10.5,0,19.4,3.9,26.7,11.7
		c7.3,7.8,11,17.9,11,30.1c0,11.8-3.8,21.7-11.4,29.7c-7.6,8-16.6,11.9-26.9,11.9c-4.6,0-8.9-0.8-12.9-2.4c-4-1.6-7.9-4.3-11.9-8
		v8.4h-20v-110H588.2z M609.1,69.6c-6.3,0-11.4,2.1-15.6,6.4c-4.1,4.3-6.2,9.8-6.2,16.7c0,7,2.1,12.7,6.2,17.1
		c4.1,4.3,9.3,6.5,15.6,6.5c6.1,0,11.2-2.2,15.3-6.6c4.1-4.4,6.2-10,6.2-16.9c0-6.8-2-12.4-6.1-16.7
		C620.5,71.8,615.3,69.6,609.1,69.6z"/>
	<path class="st0" d="M658.2,53.2h20.3l20.5,49.6l22.7-49.6H742l-49.5,108H672l16.3-34.8L658.2,53.2z"/>
	<path class="st0" d="M755.2,24.2h20v29h12v17h-12v62h-20v-62h-10v-17h10V24.2z"/>
	<path class="st0" d="M877.3,98.2h-63.8c0.9,5.6,3.4,10.1,7.4,13.4c4,3.3,9.1,5,15.3,5c7.4,0,13.8-2.6,19.1-7.8l16.7,7.9
		c-4.2,5.9-9.2,10.3-15,13.1c-5.8,2.8-12.7,4.3-20.7,4.3c-12.4,0-22.5-3.9-30.3-11.8c-7.8-7.8-11.7-17.6-11.7-29.4
		c0-12.1,3.9-22.1,11.7-30.1c7.8-8,17.5-12,29.3-12c12.5,0,22.6,4,30.4,12c7.8,8,11.7,18.5,11.7,31.6L877.3,98.2z M857.5,83.2
		c-1.3-4.4-3.9-8-7.8-10.8c-3.9-2.8-8.3-4.1-13.4-4.1c-5.5,0-10.4,1.6-14.6,4.7c-2.6,1.9-5.1,5.4-7.3,10.3H857.5z"/>
	<path class="st0" d="M946.2,25.2v137h-56v-15h36v-108h-36v-14H946.2z"/>
</g>
</svg>
